<?xml version="1.0" standalone="no"?>
<!DOCTYPE svg PUBLIC "-//W3C//DTD SVG 20010904//EN"
 "http://www.w3.org/TR/2001/REC-SVG-20010904/DTD/svg10.dtd">
<svg version="1.0" xmlns="http://www.w3.org/2000/svg"
 width="512.000000pt" height="512.000000pt" viewBox="0 0 512.000000 512.000000"
 preserveAspectRatio="xMidYMid meet">

<g transform="translate(0.000000,512.000000) scale(0.100000,-0.100000)"
fill="#000000" stroke="none">
<path d="M299 4020 c-112 -14 -218 -93 -267 -198 l-27 -57 -3 -1024 c-2 -912
-1 -1030 13 -1079 47 -159 177 -252 355 -252 l65 0 25 -47 c14 -27 52 -75 85
-108 104 -104 230 -155 380 -155 101 1 151 12 242 56 83 40 184 133 223 207
l25 47 1146 0 1146 0 12 -27 c42 -94 164 -201 283 -250 76 -31 221 -42 311
-23 134 27 288 139 347 253 l25 47 65 0 c117 0 208 37 276 111 87 96 97 145
91 433 -5 263 -17 327 -87 474 -51 106 -88 161 -169 246 -77 80 -159 140 -257
190 -78 39 -229 86 -278 86 -17 0 -36 4 -41 8 -6 4 -140 214 -297 467 -180
288 -303 476 -330 502 -57 54 -112 81 -195 93 -79 11 -3076 12 -3164 0z m3411
-797 c157 -251 291 -466 298 -479 l13 -24 -521 0 -520 0 0 480 0 480 223 0
222 0 285 -457z m-2695 -1382 c78 -36 123 -99 132 -186 11 -107 -66 -210 -175
-234 -167 -36 -312 125 -258 286 41 123 185 187 301 134z m3270 0 c118 -54
165 -181 111 -298 -93 -200 -392 -151 -422 69 -13 92 47 194 136 232 48 21
127 19 175 -3z"/>
</g>
</svg>
