<?xml version="1.0" standalone="no"?>
<!DOCTYPE svg PUBLIC "-//W3C//DTD SVG 20010904//EN"
 "http://www.w3.org/TR/2001/REC-SVG-20010904/DTD/svg10.dtd">
<svg version="1.0" xmlns="http://www.w3.org/2000/svg"
 width="512.000000pt" height="512.000000pt" viewBox="0 0 512.000000 512.000000"
 preserveAspectRatio="xMidYMid meet">

<g transform="translate(0.000000,512.000000) scale(0.100000,-0.100000)"
fill="#000000" stroke="none">
<path d="M2485 5111 c-16 -4 -113 -46 -215 -93 -178 -82 -374 -167 -640 -278
-272 -113 -339 -159 -385 -261 -24 -55 -27 -70 -23 -143 3 -50 11 -94 22 -115
l18 -33 26 25 c15 14 50 36 77 49 l50 23 1140 0 c1249 0 1176 4 1261 -61 l45
-34 16 37 c9 21 19 73 21 115 4 67 1 84 -23 135 -48 107 -101 144 -360 253
-381 161 -439 186 -650 282 -195 89 -227 101 -285 104 -36 2 -78 0 -95 -5z"/>
<path d="M1426 4049 c-32 -25 -52 -91 -66 -214 -21 -189 -7 -279 53 -350 33
-39 34 -42 41 -160 21 -377 109 -677 266 -910 121 -178 400 -444 539 -513 l75
-37 225 0 226 0 75 36 c141 68 422 335 548 521 88 129 173 344 211 535 24 117
51 342 51 427 0 48 5 64 25 88 69 82 88 180 67 348 -18 141 -32 191 -62 222
l-28 28 -1110 0 c-1106 0 -1109 0 -1136 -21z m384 -795 c137 -137 234 -209
331 -245 61 -22 78 -23 391 -27 366 -4 395 0 524 63 58 28 103 64 229 185 87
83 161 150 164 150 10 0 -7 -182 -28 -310 -63 -366 -186 -583 -480 -842 -178
-157 -169 -153 -381 -153 -210 0 -200 -4 -377 149 -349 302 -477 580 -516
1114 -1 24 2 42 8 42 6 0 66 -57 135 -126z"/>
<path d="M1750 1690 c-112 -71 -206 -133 -208 -138 -3 -11 310 -516 341 -550
66 -72 175 -81 263 -24 l49 32 83 -84 84 -83 -41 -374 c-23 -206 -41 -378 -41
-382 0 -4 126 -7 280 -7 154 0 280 3 280 7 0 3 -18 175 -41 381 l-41 375 83
83 84 84 49 -32 c88 -57 197 -48 263 24 35 38 344 541 340 552 -5 12 -401 259
-424 264 -7 2 -144 -123 -303 -278 l-290 -282 -289 281 c-159 154 -295 281
-302 280 -8 0 -106 -59 -219 -129z"/>
<path d="M1035 1525 c-248 -71 -288 -87 -385 -149 -181 -117 -309 -301 -366
-526 -24 -96 -33 -729 -11 -782 30 -72 -22 -68 929 -66 l853 3 37 335 c20 184
37 349 37 366 l1 32 -47 -10 c-102 -22 -260 31 -343 114 -27 27 -133 187 -263
396 -121 194 -220 352 -220 351 -1 0 -101 -29 -222 -64z"/>
<path d="M3643 1237 c-135 -218 -235 -368 -262 -395 -87 -85 -241 -136 -344
-114 l-47 10 1 -32 c0 -17 17 -182 37 -366 l37 -335 853 -3 c951 -2 899 -6
929 66 22 53 13 686 -11 782 -68 269 -242 483 -480 590 -50 23 -239 80 -458
138 l-37 10 -218 -351z"/>
</g>
</svg>
