<?xml version="1.0" standalone="no"?>
<!DOCTYPE svg PUBLIC "-//W3C//DTD SVG 20010904//EN"
 "http://www.w3.org/TR/2001/REC-SVG-20010904/DTD/svg10.dtd">
<svg version="1.0" xmlns="http://www.w3.org/2000/svg"
 width="512.000000pt" height="512.000000pt" viewBox="0 0 512.000000 512.000000"
 preserveAspectRatio="xMidYMid meet">
<filter id="active-filter">
  <feColorMatrix values="1 0 0 0 1 0 1 0 0 1 0 0 0 1 0" /> </filter>
<g transform="translate(0.000000,512.000000) scale(0.100000,-0.100000)"
fill="#000000" stroke="none">
<path d="M1940 5113 c-199 -7 -634 -49 -760 -73 -329 -63 -615 -259 -791 -544
-135 -219 -170 -383 -211 -971 -18 -263 -18 -1607 0 -1870 33 -472 59 -643
125 -804 145 -351 462 -621 833 -706 81 -19 441 -62 629 -74 154 -11 1135 -15
1135 -6 0 3 -30 40 -66 81 -127 146 -212 296 -274 483 -58 175 -74 289 -67
489 8 240 42 375 147 587 192 385 544 653 980 746 149 32 400 32 547 1 137
-30 257 -73 382 -138 58 -30 107 -54 109 -54 8 0 -7 1025 -18 1200 -14 235
-39 533 -51 615 -13 93 -71 263 -119 353 -176 327 -486 551 -850 616 -127 23
-433 54 -636 66 -158 8 -840 11 -1044 3z m1666 -1350 c94 -50 147 -159 125
-259 -15 -68 -58 -125 -118 -161 l-48 -28 -1125 -3 c-801 -2 -1140 0 -1177 8
-62 13 -137 74 -164 135 -34 73 -19 184 33 245 25 30 83 68 118 78 23 7 437
10 1175 9 l1140 -2 41 -22z m-963 -1007 c96 -35 157 -121 157 -224 0 -110 -69
-201 -175 -231 -27 -7 -244 -11 -681 -11 -694 0 -698 0 -769 54 -19 15 -47 48
-62 73 -22 38 -27 59 -27 112 0 114 64 198 174 232 14 4 322 7 685 8 527 0
668 -3 698 -13z"/>
<path d="M3703 2125 c-335 -61 -637 -293 -779 -600 -190 -411 -105 -893 213
-1208 123 -121 234 -193 384 -248 140 -51 209 -62 379 -62 135 0 167 3 251 25
356 96 626 339 749 676 49 134 63 236 57 407 -6 171 -28 269 -97 413 -56 117
-103 184 -198 284 -161 167 -360 275 -579 313 -103 18 -281 18 -380 0z m255
-309 l37 -34 3 -306 3 -305 184 -3 184 -3 31 -30 c56 -54 57 -137 1 -187 -40
-35 -89 -41 -352 -36 -323 5 -303 -23 -307 428 -4 409 -2 433 45 477 29 28 42
33 84 33 42 0 55 -5 87 -34z"/>
</g>
</svg>
