<?xml version="1.0" standalone="no"?>
<!DOCTYPE svg PUBLIC "-//W3C//DTD SVG 20010904//EN"
 "http://www.w3.org/TR/2001/REC-SVG-20010904/DTD/svg10.dtd">
<svg version="1.0" xmlns="http://www.w3.org/2000/svg"
 width="512.000000pt" height="512.000000pt" viewBox="0 0 512.000000 512.000000"
 preserveAspectRatio="xMidYMid meet">

<g transform="translate(0.000000,512.000000) scale(0.100000,-0.100000)"
fill="#000000" stroke="none">
<path d="M2365 5114 c-363 -37 -636 -113 -930 -258 -279 -138 -479 -282 -692
-497 -211 -213 -343 -400 -479 -674 -126 -255 -203 -510 -246 -810 -17 -118
-17 -512 0 -630 43 -300 120 -555 246 -810 136 -274 268 -460 479 -674 212
-214 413 -359 692 -497 255 -126 510 -203 810 -246 118 -17 512 -17 630 0 300
43 555 120 810 246 279 138 480 283 692 497 404 409 641 894 725 1484 17 118
17 512 0 630 -43 300 -120 555 -246 810 -136 274 -268 461 -479 674 -398 403
-883 648 -1457 736 -101 15 -467 28 -555 19z m456 -549 c825 -109 1497 -705
1698 -1505 82 -326 82 -674 0 -1000 -180 -714 -745 -1279 -1459 -1459 -512
-129 -1054 -55 -1505 204 -478 275 -821 726 -954 1255 -129 512 -55 1054 204
1505 315 547 860 915 1485 1000 129 18 401 18 531 0z"/>
<path d="M2183 3594 c-61 -22 -127 -85 -153 -145 -27 -63 -25 -161 5 -224 12
-25 132 -154 327 -351 169 -171 308 -314 308 -318 0 -4 -139 -151 -309 -326
-297 -304 -310 -320 -326 -375 -65 -223 168 -421 373 -316 57 29 849 835 882
898 34 64 34 168 1 232 -33 63 -842 885 -899 912 -56 28 -153 34 -209 13z"/>
</g>
</svg>
