<?xml version="1.0" standalone="no"?>
<!DOCTYPE svg PUBLIC "-//W3C//DTD SVG 20010904//EN"
 "http://www.w3.org/TR/2001/REC-SVG-20010904/DTD/svg10.dtd">
<svg version="1.0" xmlns="http://www.w3.org/2000/svg"
 width="512.000000pt" height="512.000000pt" viewBox="0 0 512.000000 512.000000"
 preserveAspectRatio="xMidYMid meet">

<g transform="translate(0.000000,512.000000) scale(0.100000,-0.100000)"
fill="#000000" stroke="none">
<path d="M1060 4546 c-229 -49 -424 -205 -516 -412 l-24 -54 -76 0 c-108 0
-150 -15 -209 -75 -102 -101 -102 -229 0 -330 59 -60 101 -75 209 -75 l76 0
25 -56 c53 -119 155 -236 275 -313 216 -140 517 -145 738 -14 126 75 242 202
297 327 l25 56 1436 0 c1099 0 1446 3 1478 12 55 16 138 99 154 154 26 89 9
163 -55 234 -78 87 51 80 -1575 80 l-1438 0 -25 56 c-79 178 -249 329 -440
390 -99 32 -257 40 -355 20z m246 -157 c98 -17 210 -78 288 -155 219 -220 219
-568 0 -788 -276 -275 -736 -193 -901 162 -190 408 165 862 613 781z m-826
-549 l0 -80 -55 0 c-67 0 -105 29 -105 80 0 51 38 80 105 80 l55 0 0 -80z
m4295 55 c16 -15 25 -36 25 -55 0 -19 -9 -40 -25 -55 l-24 -25 -1416 0 -1415
0 0 80 0 80 1415 0 1416 0 24 -25z"/>
<path d="M1106 4230 c-63 -16 -153 -70 -197 -117 -22 -24 -55 -74 -72 -111
-29 -61 -32 -76 -32 -163 0 -90 2 -99 37 -171 45 -91 103 -147 196 -191 61
-29 76 -32 162 -32 86 0 101 3 162 32 93 44 151 100 196 191 35 72 37 81 37
172 0 91 -2 100 -37 172 -68 136 -188 217 -336 224 -42 2 -94 -1 -116 -6z
m168 -162 c86 -26 166 -136 166 -228 0 -92 -80 -202 -166 -228 -94 -28 -169
-8 -239 63 -102 101 -102 229 0 330 70 71 145 90 239 63z"/>
<path d="M3780 3266 c-229 -49 -424 -204 -516 -412 l-24 -54 -1436 0 c-1099 0
-1446 -3 -1478 -12 -86 -26 -166 -136 -166 -228 0 -92 80 -202 166 -228 32 -9
379 -12 1478 -12 l1436 0 25 -56 c53 -119 155 -236 275 -313 216 -140 517
-145 738 -14 126 75 242 202 297 327 l25 56 76 0 c108 0 150 15 209 75 98 97
101 222 8 325 -54 60 -108 80 -215 80 l-78 0 -25 56 c-78 177 -250 330 -440
390 -99 32 -257 40 -355 20z m246 -157 c98 -17 210 -78 288 -155 219 -220 219
-568 0 -788 -276 -275 -736 -193 -901 162 -190 408 165 862 613 781z m-826
-549 l0 -80 -1415 0 -1416 0 -24 25 c-16 15 -25 36 -25 55 0 19 9 40 25 55
l24 25 1416 0 1415 0 0 -80z m1575 55 c16 -15 25 -36 25 -55 0 -51 -38 -80
-105 -80 l-55 0 0 80 0 80 55 0 c46 0 60 -4 80 -25z"/>
<path d="M3826 2950 c-63 -16 -153 -70 -197 -117 -22 -24 -55 -74 -72 -111
-29 -61 -32 -76 -32 -163 0 -90 2 -99 37 -171 45 -91 103 -147 196 -191 61
-29 76 -32 162 -32 86 0 101 3 162 32 93 44 151 100 196 191 35 72 37 81 37
172 0 91 -2 100 -37 172 -68 136 -188 217 -336 224 -42 2 -94 -1 -116 -6z
m168 -162 c86 -26 166 -136 166 -228 0 -124 -116 -240 -240 -240 -124 0 -240
116 -240 240 0 63 23 114 75 165 70 71 145 90 239 63z"/>
<path d="M2020 1986 c-229 -49 -424 -204 -516 -412 l-24 -54 -556 0 c-408 0
-568 -3 -598 -12 -86 -26 -166 -136 -166 -228 0 -92 80 -202 166 -228 30 -9
190 -12 598 -12 l556 0 25 -56 c53 -119 155 -236 275 -313 216 -140 516 -145
739 -14 123 73 241 202 296 327 l25 56 956 0 c722 0 967 3 998 12 55 16 138
99 154 154 26 89 9 163 -55 234 -76 85 -8 80 -1095 80 l-958 0 -25 56 c-78
177 -250 330 -440 390 -99 32 -257 40 -355 20z m246 -157 c98 -17 210 -78 288
-155 219 -220 219 -568 0 -788 -276 -275 -736 -193 -901 162 -190 408 165 862
613 781z m-826 -549 l0 -80 -535 0 -536 0 -24 25 c-16 15 -25 36 -25 55 0 19
9 40 25 55 l24 25 536 0 535 0 0 -80z m3335 55 c16 -15 25 -36 25 -55 0 -19
-9 -40 -25 -55 l-24 -25 -936 0 -935 0 0 80 0 80 935 0 936 0 24 -25z"/>
<path d="M2066 1670 c-63 -16 -153 -70 -197 -117 -22 -24 -55 -74 -72 -111
-29 -61 -32 -76 -32 -163 0 -90 2 -99 37 -171 45 -91 103 -147 196 -191 61
-29 76 -32 162 -32 86 0 101 3 162 32 93 44 151 100 196 191 35 72 37 81 37
172 0 91 -2 100 -37 172 -68 136 -188 217 -336 224 -42 2 -94 -1 -116 -6z
m168 -162 c86 -26 166 -136 166 -228 0 -124 -116 -240 -240 -240 -92 0 -202
80 -228 166 -28 94 -8 169 63 239 70 71 145 90 239 63z"/>
</g>
</svg>
