<?xml version="1.0" standalone="no"?>
<!DOCTYPE svg PUBLIC "-//W3C//DTD SVG 20010904//EN"
 "http://www.w3.org/TR/2001/REC-SVG-20010904/DTD/svg10.dtd">
<svg version="1.0" xmlns="http://www.w3.org/2000/svg"
 width="512.000000pt" height="512.000000pt" viewBox="0 0 512.000000 512.000000"
 preserveAspectRatio="xMidYMid meet">
<filter id="active-filter">
  <feColorMatrix values="1 0 0 0 1 0 1 0 0 1 0 0 0 1 0" /> </filter>
<g transform="translate(0.000000,512.000000) scale(0.100000,-0.100000)"
fill="#000000" stroke="none">
<path d="M720 5101 c-339 -74 -601 -323 -691 -656 -18 -65 -22 -107 -22 -225
0 -164 18 -251 77 -375 18 -38 185 -301 372 -583 361 -549 364 -552 444 -552
80 0 83 3 444 552 187 282 354 545 372 583 59 124 77 211 77 375 0 118 -4 160
-22 225 -86 318 -332 564 -646 646 -116 30 -294 35 -405 10z m272 -442 c87
-18 158 -58 223 -123 258 -259 118 -696 -244 -758 -141 -24 -281 22 -386 127
-178 177 -178 455 0 630 113 112 257 155 407 124z"/>
<path d="M269 2832 c-395 -259 -344 -689 106 -908 458 -222 1108 -104 1341
243 21 32 39 59 39 60 0 1 286 -69 635 -156 494 -122 634 -161 631 -172 -31
-126 11 -267 112 -376 22 -24 38 -45 36 -47 -2 -3 -144 -84 -314 -182 l-310
-177 -40 12 c-291 84 -589 102 -875 52 -499 -86 -803 -372 -714 -672 24 -81
48 -121 111 -189 132 -143 350 -245 633 -297 133 -24 467 -24 600 0 277 51
478 144 615 285 173 176 177 410 12 589 -22 24 -38 45 -36 47 2 3 144 84 314
182 l310 177 40 -12 c251 -73 490 -96 736 -71 454 46 778 232 853 489 89 306
-219 588 -739 678 -143 24 -473 24 -610 -1 -188 -34 -364 -99 -506 -187 l-35
-22 -716 177 -716 177 -32 65 c-17 35 -56 91 -87 124 -59 64 -201 166 -213
153 -4 -4 -53 -76 -109 -160 -56 -84 -121 -169 -144 -189 -140 -120 -336 -145
-498 -64 -90 46 -132 91 -242 255 -55 83 -103 154 -107 158 -3 4 -40 -14 -81
-41z"/>
</g>
</svg>
