<svg width="966" height="290" viewBox="0 0 966 290" fill="none" xmlns="http://www.w3.org/2000/svg">
<path d="M0.900001 220V213.7L6.9 211.6C13.3 209.6 16.5 204.6 16.5 196.6C16.7 185.2 16.8 173.6 16.8 161.8C16.8 149.8 16.8 137.6 16.8 125.2V114.7C16.8 103.1 16.8 91.5 16.8 79.9C16.8 68.3 16.7 56.7 16.5 45.1C16.5 36.9 13.4 31.8 7.2 29.8L0.900001 28V21.7H79.8C100.8 21.7 118.9 25.6 134.1 33.4C149.3 41.2 161 52.5 169.2 67.3C177.4 81.9 181.5 99.6 181.5 120.4C181.5 141.6 177 159.6 168 174.4C159.2 189.2 146.7 200.5 130.5 208.3C114.5 216.1 95.8 220 74.4 220H0.900001ZM60 211.3H75.3C89.5 211.3 101 208.5 109.8 202.9C118.8 197.3 125.4 187.9 129.6 174.7C133.8 161.3 135.9 143.3 135.9 120.7C135.9 98.1 133.8 80.2 129.6 67C125.4 53.8 118.9 44.4 110.1 38.8C101.5 33.2 90.3 30.4 76.5 30.4H60C59.8 44.2 59.7 58.2 59.7 72.4C59.7 86.4 59.7 100.5 59.7 114.7V124.9C59.7 139.9 59.7 154.6 59.7 169C59.7 183.2 59.8 197.3 60 211.3ZM247.945 224.2C240.145 224.2 233.045 222.8 226.645 220C220.245 217 215.145 212.2 211.345 205.6C207.745 198.8 206.045 189.9 206.245 178.9L207.145 103.6C207.145 99.2 206.445 96 205.045 94C203.645 92 201.145 90.6 197.545 89.8L193.945 88.6V83.2L245.245 73.3L248.545 76.6L247.045 118.9V187C247.045 193.8 248.845 198.8 252.445 202C256.245 205 260.945 206.5 266.545 206.5C272.345 206.5 277.545 205.7 282.145 204.1C286.945 202.3 291.845 199.7 296.845 196.3L297.745 103.9C297.745 99.3 297.045 96.1 295.645 94.3C294.445 92.5 292.045 91.1 288.445 90.1L285.145 89.2V83.8L335.245 73.3L338.545 76.6L337.645 118.9V197.5C337.645 201.7 338.145 205.1 339.145 207.7C340.345 210.1 342.845 211.9 346.645 213.1L350.545 214.3V220L299.845 223L297.145 204.1C290.345 209.9 282.945 214.7 274.945 218.5C266.945 222.3 257.945 224.2 247.945 224.2ZM363.302 220V214.3L367.802 213.1C374.402 210.9 377.702 205.9 377.702 198.1C377.702 191.3 377.702 184.5 377.702 177.7C377.902 170.7 378.002 163.8 378.002 157V43C378.002 38.8 377.302 35.7 375.902 33.7C374.502 31.5 371.802 29.9 367.802 28.9L363.302 27.7V22L415.802 9.39999L419.702 12.1L418.502 54.4V198.1C418.702 202.1 419.502 205.4 420.902 208C422.502 210.4 425.202 212.1 429.002 213.1L433.202 214.3V220H363.302ZM466.425 0.699998C473.625 0.699998 479.425 3.29999 483.825 8.49999C488.225 13.5 490.425 20.3 490.425 28.9C490.425 39.9 487.225 50.2 480.825 59.8C474.425 69.4 466.525 76.5 457.125 81.1L454.125 76C458.125 72.8 461.625 68.9 464.625 64.3C467.825 59.7 470.325 54.1 472.125 47.5L465.825 45.7C459.425 43.7 454.325 40.7 450.525 36.7C446.925 32.7 445.125 27.8 445.125 22C445.125 15.6 447.225 10.5 451.425 6.69999C455.625 2.7 460.625 0.699998 466.425 0.699998ZM557.82 224.2C543.02 224.2 530.02 221.1 518.82 214.9C507.82 208.7 499.22 199.9 493.02 188.5C487.02 177.1 484.02 163.5 484.02 147.7C484.02 131.9 487.22 118.3 493.62 106.9C500.22 95.5 509.02 86.8 520.02 80.8C531.22 74.6 543.82 71.5 557.82 71.5C571.82 71.5 584.32 74.6 595.32 80.8C606.52 86.8 615.32 95.5 621.72 106.9C628.32 118.1 631.62 131.7 631.62 147.7C631.62 163.5 628.52 177.2 622.32 188.8C616.32 200.2 607.82 209 596.82 215.2C585.82 221.2 572.82 224.2 557.82 224.2ZM557.82 215.8C565.02 215.8 570.82 213.9 575.22 210.1C579.82 206.1 583.12 199.2 585.12 189.4C587.12 179.6 588.12 165.9 588.12 148.3C588.12 130.5 587.12 116.7 585.12 106.9C583.12 96.9 579.82 90 575.22 86.2C570.82 82.2 565.02 80.2 557.82 80.2C550.62 80.2 544.82 82.2 540.42 86.2C536.02 90 532.72 96.9 530.52 106.9C528.52 116.7 527.52 130.5 527.52 148.3C527.52 165.9 528.52 179.6 530.52 189.4C532.72 199.2 536.02 206.1 540.42 210.1C544.82 213.9 550.62 215.8 557.82 215.8ZM645.417 220V214.3L650.217 213.1C656.817 211.1 660.117 206.2 660.117 198.4V109.9C659.917 105.7 659.217 102.5 658.017 100.3C656.817 97.9 654.217 96.3 650.217 95.5L645.417 94.3V88.9L694.017 71.5L697.617 74.8L699.717 93.4C706.917 87 714.917 81.8 723.717 77.8C732.717 73.6 741.517 71.5 750.117 71.5C763.317 71.5 773.417 75.1 780.417 82.3C787.617 89.5 791.217 100.5 791.217 115.3V198.7C791.217 206.5 794.817 211.4 802.017 213.4L805.317 214.3V220H736.317V214.3L740.817 213.1C747.417 210.9 750.717 206 750.717 198.4V109.3C750.717 102.3 749.217 97.2 746.217 94C743.217 90.8 738.217 89.2 731.217 89.2C721.417 89.2 711.217 93.5 700.617 102.1V198.7C700.617 206.5 704.117 211.4 711.117 213.4L714.117 214.3V220H645.417ZM882.483 168.7C869.283 168.7 857.983 166.5 848.583 162.1V172.9C848.583 178.9 851.583 182.5 857.583 183.7L910.983 193.6C921.183 195.6 930.183 198.1 937.983 201.1C945.783 203.9 951.883 208 956.283 213.4C960.683 218.6 962.883 225.7 962.883 234.7C962.883 244.3 959.683 253.2 953.283 261.4C947.083 269.8 937.783 276.5 925.383 281.5C913.183 286.7 897.883 289.3 879.483 289.3C863.683 289.3 851.083 287.6 841.683 284.2C832.483 281 825.883 276.8 821.883 271.6C817.883 266.4 815.883 260.8 815.883 254.8C815.883 247.6 818.283 240.4 823.083 233.2C828.083 226 834.483 220 842.283 215.2C830.083 210.6 823.983 203.3 823.983 193.3C823.983 189.5 824.883 186 826.683 182.8C828.483 179.6 830.683 176.4 833.283 173.2L844.083 159.7C829.683 151.3 822.483 138.2 822.483 120.4C822.483 105.8 827.583 94 837.783 85C848.183 76 863.083 71.5 882.483 71.5C901.883 71.5 916.883 76 927.483 85C933.883 84 939.883 82.4 945.483 80.2C951.083 78 956.283 75 961.083 71.2L965.283 74.2V91H932.883C939.283 99 942.483 108.8 942.483 120.4C942.483 134.6 937.283 146.2 926.883 155.2C916.683 164.2 901.883 168.7 882.483 168.7ZM881.883 160.6C890.283 160.6 896.383 157.4 900.183 151C904.183 144.4 906.183 133.9 906.183 119.5C906.183 105.3 904.283 95.1 900.483 88.9C896.683 82.7 890.783 79.6 882.783 79.6C874.783 79.6 868.783 82.8 864.783 89.2C860.983 95.4 859.083 105.7 859.083 120.1C859.083 134.5 860.883 144.9 864.483 151.3C868.083 157.5 873.883 160.6 881.883 160.6ZM839.283 246.1C839.283 257.1 842.783 265.3 849.783 270.7C856.783 276.3 867.883 279.1 883.083 279.1C899.883 279.1 912.283 276.3 920.283 270.7C928.483 265.3 932.583 258.1 932.583 249.1C932.583 243.5 930.483 239.1 926.283 235.9C922.283 232.7 915.483 230.2 905.883 228.4L852.183 217.9C851.383 217.7 850.583 217.5 849.783 217.3C846.783 221.3 844.283 225.9 842.283 231.1C840.283 236.3 839.283 241.3 839.283 246.1Z" fill="#6F42C1"/>
</svg>
